HIERARCHY
ROOT hips
{
  OFFSET 0 10.074487846421558 1.314567655973056
  CHANNELS 6 Xposition Yposition Zposition Yrotation Xrotation Zrotation
  JOINT spine
  {
    OFFSET -7.042773748992335e-31 0.5690686926897363 0
    CHANNELS 3 Yrotation Xrotation Zrotation
    JOINT chest
    {
      OFFSET 0 1.2435964857087873 0
      CHANNELS 3 Yrotation Xrotation Zrotation
      JOINT upperChest
      {
        OFFSET 0 1.194994586872362 0
        CHANNELS 3 Yrotation Xrotation Zrotation
        JOINT neck
        {
          OFFSET 0 1.515103653293861 0
          CHANNELS 3 Yrotation Xrotation Zrotation
          JOINT head
          {
            OFFSET 0 0.8111851616465653 0
            CHANNELS 3 Yrotation Xrotation Zrotation
            JOINT leftEye
            {
              OFFSET 0.27141371691966987 0.7490044407698551 0.18219031050045686
              CHANNELS 3 Yrotation Xrotation Zrotation
              End Site
              {
                OFFSET 0.27141371691966987 0.7490044407698551 0.18219031050045686
              }
            }
            JOINT rightEye
            {
              OFFSET -0.2714136877644943 0.7490044019380786 0.18219040411850668
              CHANNELS 3 Yrotation Xrotation Zrotation
              End Site
              {
                OFFSET -0.2714136877644943 0.7490044019380786 0.18219040411850668
              }
            }
          }
        }
        JOINT leftShoulder
        {
          OFFSET 0.4137993136083964 1.1593397335613034 0
          CHANNELS 3 Yrotation Xrotation Zrotation
          JOINT leftUpperArm
          {
            OFFSET 1.0096991868951026 0 0
            CHANNELS 3 Yrotation Xrotation Zrotation
            JOINT leftLowerArm
            {
              OFFSET 2.418380967671622 0 0
              CHANNELS 3 Yrotation Xrotation Zrotation
              JOINT leftHand
              {
                OFFSET 2.361538296260114 0 0
                CHANNELS 3 Yrotation Xrotation Zrotation
                JOINT leftIndexProximal
                {
                  OFFSET 0.7243699271447109 0.08118285989887508 0.2022042461579805
                  CHANNELS 3 Yrotation Xrotation Zrotation
                  JOINT leftIndexIntermediate
                  {
                    OFFSET 0.36553107045252053 -0.010567764853200323 -0.014102670024158437
                    CHANNELS 3 Yrotation Xrotation Zrotation
                    JOINT leftIndexDistal
                    {
                      OFFSET 0.22505120770060527 -0.007821041598631284 -0.007511611613336286
                      CHANNELS 3 Yrotation Xrotation Zrotation
                      End Site
                      {
                        OFFSET 0.22505120770060527 -0.007821041598631284 -0.007511611613336286
                      }
                    }
                  }
                }
                JOINT leftLittleProximal
                {
                  OFFSET 0.6721063881632002 0.08118279568569564 -0.3209324945517917
                  CHANNELS 3 Yrotation Xrotation Zrotation
                  JOINT leftLittleIntermediate
                  {
                    OFFSET 0.34587329423120616 5.3042709780015684e-8 -5.929537746918179e-8
                    CHANNELS 3 Yrotation Xrotation Zrotation
                    JOINT leftLittleDistal
                    {
                      OFFSET 0.1992782500022232 0.0030983716482184676 0.0038310952896712935
                      CHANNELS 3 Yrotation Xrotation Zrotation
                      End Site
                      {
                        OFFSET 0.1992782500022232 0.0030983716482184676 0.0038310952896712935
                      }
                    }
                  }
                }
                JOINT leftMiddleProximal
                {
                  OFFSET 0.7301229696860206 0.08118412848995638 0.022516891543707507
                  CHANNELS 3 Yrotation Xrotation Zrotation
                  JOINT leftMiddleIntermediate
                  {
                    OFFSET 0.4076277831942017 -0.000001240188283180288 -1.6203245635504349e-7
                    CHANNELS 3 Yrotation Xrotation Zrotation
                    JOINT leftMiddleDistal
                    {
                      OFFSET 0.2514739255593972 0.0000013850839168938478 -1.8644847207816007e-8
                      CHANNELS 3 Yrotation Xrotation Zrotation
                      End Site
                      {
                        OFFSET 0.2514739255593972 0.0000013850839168938478 -1.8644847207816007e-8
                      }
                    }
                  }
                }
                JOINT leftRingProximal
                {
                  OFFSET 0.7218060861525873 0.08118280646416753 -0.1494689818508163
                  CHANNELS 3 Yrotation Xrotation Zrotation
                  JOINT leftRingIntermediate
                  {
                    OFFSET 0.3781267508900358 0.000001373626195677602 -1.4143108284514483e-7
                    CHANNELS 3 Yrotation Xrotation Zrotation
                    JOINT leftRingDistal
                    {
                      OFFSET 0.21814333268795483 -0.0027137626495670197 -0.004991775417842292
                      CHANNELS 3 Yrotation Xrotation Zrotation
                      End Site
                      {
                        OFFSET 0.21814333268795483 -0.0027137626495670197 -0.004991775417842292
                      }
                    }
                  }
                }
                JOINT leftThumbProximal
                {
                  OFFSET 0.10743676110519984 -0.16423092885053192 -0.07708859146227388
                  CHANNELS 3 Yrotation Xrotation Zrotation
                  JOINT leftThumbIntermediate
                  {
                    OFFSET 0.40350402100066307 -0.01735099334274981 0.315629965828783
                    CHANNELS 3 Yrotation Xrotation Zrotation
                    JOINT leftThumbDistal
                    {
                      OFFSET 0.2320014489535681 -0.01842351809041043 0.21271298411519196
                      CHANNELS 3 Yrotation Xrotation Zrotation
                      End Site
                      {
                        OFFSET 0.2320014489535681 -0.01842351809041043 0.21271298411519196
                      }
                    }
                  }
                }
              }
            }
          }
        }
        JOINT rightShoulder
        {
          OFFSET -0.41379931360839656 1.1593397335613034 0
          CHANNELS 3 Yrotation Xrotation Zrotation
          JOINT rightUpperArm
          {
            OFFSET -1.0096991868951024 0 0
            CHANNELS 3 Yrotation Xrotation Zrotation
            JOINT rightLowerArm
            {
              OFFSET -2.4183809676716232 0 0
              CHANNELS 3 Yrotation Xrotation Zrotation
              JOINT rightHand
              {
                OFFSET -2.3615382962601132 0 0
                CHANNELS 3 Yrotation Xrotation Zrotation
                JOINT rightIndexProximal
                {
                  OFFSET -0.7243699271447109 0.08118285989887508 0.2022042461579805
                  CHANNELS 3 Yrotation Xrotation Zrotation
                  JOINT rightIndexIntermediate
                  {
                    OFFSET -0.36553107045252053 -0.010567764853200323 -0.014102670024158437
                    CHANNELS 3 Yrotation Xrotation Zrotation
                    JOINT rightIndexDistal
                    {
                      OFFSET -0.22505120770060527 -0.007821041598631284 -0.007511611613336286
                      CHANNELS 3 Yrotation Xrotation Zrotation
                      End Site
                      {
                        OFFSET -0.22505120770060527 -0.007821041598631284 -0.007511611613336286
                      }
                    }
                  }
                }
                JOINT rightLittleProximal
                {
                  OFFSET -0.6721063881632002 0.08118279568569564 -0.3209324945517917
                  CHANNELS 3 Yrotation Xrotation Zrotation
                  JOINT rightLittleIntermediate
                  {
                    OFFSET -0.34587329423120616 5.3042709780015684e-8 -5.929537746918179e-8
                    CHANNELS 3 Yrotation Xrotation Zrotation
                    JOINT rightLittleDistal
                    {
                      OFFSET -0.1992782500022232 0.0030983716482184676 0.0038310952896712935
                      CHANNELS 3 Yrotation Xrotation Zrotation
                      End Site
                      {
                        OFFSET -0.1992782500022232 0.0030983716482184676 0.0038310952896712935
                      }
                    }
                  }
                }
                JOINT rightMiddleProximal
                {
                  OFFSET -0.7301229696860206 0.08118412848995638 0.022516891543707507
                  CHANNELS 3 Yrotation Xrotation Zrotation
                  JOINT rightMiddleIntermediate
                  {
                    OFFSET -0.4076277831942017 -0.000001240188283180288 -1.6203245635504349e-7
                    CHANNELS 3 Yrotation Xrotation Zrotation
                    JOINT rightMiddleDistal
                    {
                      OFFSET -0.2514739255593972 0.0000013850839168938478 -1.8644847207816007e-8
                      CHANNELS 3 Yrotation Xrotation Zrotation
                      End Site
                      {
                        OFFSET -0.2514739255593972 0.0000013850839168938478 -1.8644847207816007e-8
                      }
                    }
                  }
                }
                JOINT rightRingProximal
                {
                  OFFSET -0.7218060861525873 0.08118280646416753 -0.1494689818508163
                  CHANNELS 3 Yrotation Xrotation Zrotation
                  JOINT rightRingIntermediate
                  {
                    OFFSET -0.3781267508900358 0.000001373626195677602 -1.4143108284514483e-7
                    CHANNELS 3 Yrotation Xrotation Zrotation
                    JOINT rightRingDistal
                    {
                      OFFSET -0.21814333268795483 -0.0027137626495670197 -0.004991775417842292
                      CHANNELS 3 Yrotation Xrotation Zrotation
                      End Site
                      {
                        OFFSET -0.21814333268795483 -0.0027137626495670197 -0.004991775417842292
                      }
                    }
                  }
                }
                JOINT rightThumbProximal
                {
                  OFFSET -0.10743676110519984 -0.16423092885053192 -0.07708859146227388
                  CHANNELS 3 Yrotation Xrotation Zrotation
                  JOINT rightThumbIntermediate
                  {
                    OFFSET -0.40350402100066307 -0.01735099334274981 0.315629965828783
                    CHANNELS 3 Yrotation Xrotation Zrotation
                    JOINT rightThumbDistal
                    {
                      OFFSET -0.2320014489535681 -0.01842351809041043 0.21271298411519196
                      CHANNELS 3 Yrotation Xrotation Zrotation
                      End Site
                      {
                        OFFSET -0.2320014489535681 -0.01842351809041043 0.21271298411519196
                      }
                    }
                  }
                }
              }
            }
          }
        }
      }
    }
  }
  JOINT leftUpperLeg
  {
    OFFSET 0.8487163290887698 -0.43932186100277326 0
    CHANNELS 3 Yrotation Xrotation Zrotation
    JOINT leftLowerLeg
    {
      OFFSET 0 -3.882816707004296 0
      CHANNELS 3 Yrotation Xrotation Zrotation
      JOINT leftFoot
      {
        OFFSET 0 -4.570431027442807 0.004629272230691511
        CHANNELS 3 Yrotation Xrotation Zrotation
        JOINT leftToes
        {
          OFFSET 0 -0.698875637876343 1.214565366696912
          CHANNELS 3 Yrotation Xrotation Zrotation
          End Site
          {
            OFFSET 0 -0.698875637876343 1.214565366696912
          }
        }
      }
    }
  }
  JOINT rightUpperLeg
  {
    OFFSET -0.8487163290887698 -0.43932186100277326 0
    CHANNELS 3 Yrotation Xrotation Zrotation
    JOINT rightLowerLeg
    {
      OFFSET 0 -3.882816707004296 0
      CHANNELS 3 Yrotation Xrotation Zrotation
      JOINT rightFoot
      {
        OFFSET 0 -4.570431027442807 0.004629272230691511
        CHANNELS 3 Yrotation Xrotation Zrotation
        JOINT rightToes
        {
          OFFSET 0 -0.698875637876343 1.214565366696912
          CHANNELS 3 Yrotation Xrotation Zrotation
          End Site
          {
            OFFSET 0 -0.698875637876343 1.214565366696912
          }
        }
      }
    }
  }
}
MOTION
Frames: 4
Frame Time: 0.03333333333333333
0.02207246981561184 -0.39298550419743705 0.040656328201293945 7.652806426801571 3.5591026290455083 1.0918081045603019 -1.788189596753688 6.695396944753281 1.149384350751575 -0.9526599081159638 29.52692694798855 0.3079054795261121 0 0 0 -0.7404147280560531 3.149813894551468 0.5601847095642849 -3.90724336085417 21.332137465110026 1.8465871480107519 0 0 0 0 0 0 -11.051618907828942 -0.2449342378250421 -21.83588915449652 -23.92464790745138 -25.547711624863876 -46.166606218942704 -21.435642072918462 0.051195899844727964 0.2704854139891542 -3.931515651565483 10.563910078138834 7.540167404982845 3.461094842574646 0.18582378634775143 -14.890077707339266 2.130709904466217 0.46383857057829353 -24.56210097143204 1.2998807020733738 0.16757039243825403 -14.69241741000529 4.88137517582032 0.688516501164235 -23.679504741520986 2.4494090813419698 0.6231143793574591 -28.542987181616763 1.2723858003872404 0.16043629732067574 -14.375004206210388 7.180942731831433 1.2690485333779893 -16.25324918670823 1.9793486238450388 0.3975965067387338 -22.715883213131928 1.8785590949163398 0.3566602676926847 -21.500301932530583 8.363921014217857 1.6958385324094338 -17.085127012479493 3.225874314996061 1.1421461297657036 -38.987103361178896 1.7609586524269165 0.311994364536278 -20.094461414982348 4.687057215613858 -0.2760777681291479 10.71130691266345 6.551314247174539 13.984375436162061 12.298538040450472 -26.42259125560859 -1.352556115908403 16.54401906745014 6.13597908757554 0.3395702852814853 19.40411772409472 23.625800871232315 -25.98771861495028 46.50800163059342 9.132788503967646 0.009380728757103197 -0.11748852555932968 7.245055471873878 1.679364441061361 2.509246636419792 3.2014957703726896 -1.3311388801984299 14.320091508391265 -1.9511197976093893 0.5195282761908315 29.817230768560737 -1.636375915823998 0.3575374304290122 24.64826772290331 -11.131041791661906 -12.585837458328408 15.651505866598889 -2.42891945694013 0.8421193261874582 38.23832320657881 -1.2490216882312801 0.20411788702588 18.56287224709841 1.0826694469996407 -1.2191927262942253 17.83140831619043 -2.4708711895038613 0.8756436873094782 39.02174567086724 -1.4373395929638277 0.2727697308319071 21.4897337769403 -2.2020307383471076 -0.126729100718499 15.803732576060593 -2.8648513262543567 1.2423346909064967 46.880732386161505 -1.338713156686753 0.23546455088192206 19.950151557208933 1.4944269437413353 -6.4601653431591 -14.415920506945891 -21.67820351244805 16.60747145123897 1.4272375638502512 14.90608535147205 -17.57985154913607 -14.656740185069443 3.438460453542471 -29.102277768688285 -0.2724231475648297 9.715032409302129 53.42346671210821 8.90571881674855 0.40414757766216075 -2.446629738356456 -7.235456449702985 0.0000066068738410684425 -3.001937461856246 -0.00000699250803657894 -9.545992363326134 -21.441165586631946 0.06340826483388046 -11.381164411601821 32.68131536329836 -5.0878226689283315 -5.79950037875742 -15.128248712479063 2.6651066687630545 -5.509726558712824e-9 -0.0005816486690302196 -4.26851226357802e-7
0.01627984829246998 -0.3803569488995855 0.025468844920396805 7.857861244332358 3.7271370591835336 1.3941517965598214 -1.4918531730705276 6.627835477571868 0.9288447100697572 -0.8190924784443626 29.52669734535087 0.20983094096872262 0 0 0 -0.7546198136513904 3.1229951122598223 0.5269666787609302 -3.9935138505442715 21.19476192947804 1.7725121507035304 0 0 0 0 0 0 -10.985292110195903 -0.24388587429034062 -21.928137311709875 -24.300359548811194 -25.24818236000055 -45.560793738047586 -21.863641933986266 0.053241038757574 0.2756514689611186 -4.303233210262153 11.216245821992059 7.505946006058012 3.4603394382481985 0.1856545781941306 -14.881418695642424 2.1282677446051275 0.4627301227066434 -24.532096641985426 1.3006178163197957 0.16775692943841672 -14.700933594691968 4.881302707178184 0.6884849626231404 -23.678507572010854 2.4494092946029826 0.6230933005740827 -28.542990313605657 1.2727506383337985 0.16053684290216047 -14.379180502255474 7.173415742506906 1.266042834813011 -16.24137966306251 1.9793428641727522 0.39758796879670494 -22.715881637999324 1.8785584549178385 0.3566514629813742 -21.500300343771116 8.361575781240877 1.6939230002535004 -17.07160307403406 3.2242453013138044 1.1408214505150744 -38.96364474575726 1.7606138908361864 0.31186104046954355 -20.090470942290146 4.687057215613858 -0.2760777681291479 10.71130691266345 6.567895185725317 13.991979233888697 12.297929746646911 -26.43102436412413 -1.349498649580358 16.552309821981428 6.24863901988968 0.33273501590886095 19.294136577841616 24.109678909858786 -25.849550908965067 46.077131147093546 9.453503138310623 0.010061233053710351 -0.1215637330771972 7.429327314190447 1.2326437005732391 2.638681026200149 3.202670504531643 -1.329919469374264 14.307544338948155 -1.9511159576975812 0.5195094390354067 29.817204715634674 -1.6361373970810251 0.3574284120846144 24.64451296496546 -11.12367341004735 -12.586967695161118 15.661840393449395 -2.427413676593984 0.8409101989330323 38.21035873634 -1.2490329981161497 0.20412831913882362 18.562879809172845 1.1083063013121353 -1.2272711592693926 17.83091497706853 -2.4708637250581758 0.8756307724748973 39.02175793232408 -1.4367159922484596 0.27252624250335766 21.479925171488574 -2.181452090030961 -0.13194515072020632 15.777020689029625 -2.864846635265286 1.2423289265794089 46.880717901542525 -1.33873193473867 0.2354706340705226 19.950156372480784 1.4944269437413353 -6.4601653431591 -14.415920506945891 -21.660795320010926 16.602334366314835 1.4246278608167733 15.013562551873079 -17.56938406809481 -14.742202707664413 3.4126101977190673 -30.013242859711703 -0.9797844222947376 9.215260477569739 50.22548424678747 8.073399436587666 0.3958667188585225 -2.4963154237651075 -7.001704758890127 -0.000004198188429243989 -3.6392456372345974 0.000008114855343527013 -9.552586842109875 -20.62475135930149 -0.17652842235802593 -11.279796268173882 32.222537331773644 -5.035593722639839 -6.064921585749447 -15.664146897874245 2.9130601978241093 -0.0000026249943203669317 -0.000590373376919141 8.877544889128504e-7
0.011405466124415398 -0.3554126434796636 -0.0023353698197752237 8.257638461813263 4.103046581077769 1.8463170195461527 -0.990275774582105 6.570016935018013 0.5944999274307777 -0.5953772774156135 29.526436344694787 0.03971606568359578 0 0 0 -0.7794757895921798 3.0918014501326865 0.45809022881728645 -4.1486380959240625 21.000214007728562 1.5809891778773926 0 0 0 0 0 0 -10.78361879901935 -0.22729573810086587 -22.00683476356352 -24.658821199120677 -24.651192537599552 -44.76891616532538 -22.459583238396288 0.05612697508950177 0.2827509654832605 -5.005178987401317 11.785584798161963 7.751825395237369 3.447099911193608 0.18111086495609544 -15.113914037677972 2.1262639175462157 0.46183117651929606 -24.507469939697707 1.296309371725235 0.16662530101327927 -14.65110077961075 4.840043767170741 0.671411435675936 -23.80170884511442 2.4494028967725785 0.6230957553184716 -28.542993313803066 1.274171091202713 0.1608993913032442 -14.395551866572292 7.110487507793501 1.2583520967144532 -16.419208532131705 1.980728874859028 0.3981770601363476 -22.732659912736462 1.8793516687040375 0.3569721946070044 -21.509843273957618 8.327879003683375 1.6982492591748077 -17.248580875420267 3.2301856481972155 1.1456300070884449 -39.0490748212345 1.758077573145278 0.31095383921014097 -20.060205306818286 4.687057215613858 -0.2760777681291479 10.71130691266345 6.595643402355381 14.002457084361527 12.292605799631906 -26.51138547319552 -1.3083598128093217 16.624772033749522 6.445225066474899 0.3213286009360899 19.109501730457552 25.11862714700939 -25.457018785179525 45.22400416058225 10.091515504199277 0.011441372351183931 -0.12969535805041077 7.8514521241506685 0.7774309707171377 2.9166876807200746 3.2358492483475967 -1.324601487350815 14.194040439523251 -1.9511176643250532 0.5194994067826821 29.817210858477008 -1.6352084986661903 0.35699796839921755 24.62951411027312 -11.122877199625563 -12.590469536399603 15.619055698489456 -2.425497115220776 0.8394254336566846 38.17474117893275 -1.2490221150193903 0.2041288260701433 18.562881427894997 1.1381247305056512 -1.229515605668291 17.749515954596216 -2.4703501256699716 0.8752001534911381 39.01222511751825 -1.4365918268938556 0.2724755224390448 21.477685249755247 -2.168651119299424 -0.1342459835233031 15.718329740784366 -2.8647742231644773 1.242263704286752 46.87905026794333 -1.33788132240295 0.2351515334790943 19.937150265724938 1.4944269437413353 -6.4601653431591 -14.415920506945891 -21.571153300831348 16.576241234732052 1.4124860206461363 15.362453956789736 -17.536042261601285 -15.018765568710963 3.3802821261905303 -31.297868310363707 -2.1804922788131553 9.44444913335606 42.47153872603544 7.299866926569158 0.3241726738922749 -1.9609100356805254 -6.1611688284374 -0.000002404234206531949 -2.5152728115981633 0.0000044650211119040294 -9.592658481628133 -18.841518485264128 -0.5250507854919426 -11.101361516927426 31.002350561906404 -4.877801716932008 -6.622974253970456 -16.58505317269379 3.4238666333979855 0.000003266322791225731 -0.0005848661617070317 3.8472829093418604e-7
0.015592038631439209 -0.3348075561993902 -0.027711067348718643 8.500211163350574 4.53896034472775 2.1896456818600365 -0.5495225787138239 6.427141933913298 0.3182540726061165 -0.3647529471241775 29.52649717937399 -0.054490153901709415 0 0 0 -0.80151594737055 3.0934377424985424 0.39298983361778117 -4.279977125345656 20.939584709361778 1.3636207049686262 0 0 0 0 0 0 -10.518294265411615 -0.19911463575938015 -22.009550249078995 -24.47081813052947 -24.04715024421452 -44.52601033864294 -23.257828922006873 0.06012180404704715 0.2922677661212136 -5.400378276821502 11.509648900174982 8.12665343651886 3.4370528421087174 0.17636862286224325 -15.515415979543727 2.1270553469971607 0.46217632573650236 -24.517182179421063 1.286228848010916 0.16401494392455288 -14.534742625190372 4.778532490830518 0.6457355385084844 -24.01727935816152 2.4494024702505492 0.6231005047152272 -28.542990313605657 1.275604698437931 0.1612671157340028 -14.412125387644652 7.022626643152157 1.2505138567543894 -16.727709300170492 1.9847988064923372 0.39988923798536696 -22.782100555304115 1.8798857738879784 0.35717462293350516 -21.51620163305873 8.274715627948595 1.7081451324532027 -17.57052677663784 3.2412016050058208 1.1545836275652586 -39.2075457050796 1.7540356976270768 0.3094668905701081 -20.01223271776005 4.687057215613858 -0.2760777681291479 10.71130691266345 6.6270522081169405 14.012569349487109 12.283864411936328 -26.654095600365796 -1.2430236348309085 16.756603803872867 6.589595049920182 0.3137081805970341 18.964621977755634 26.036920632510697 -24.872178111034724 44.44480284762631 11.276934471037151 0.01429288302037162 -0.14472731751513976 8.098395855868713 0.7150550043220346 3.1525284387571597 3.270986966605574 -1.3148541427885778 14.040305604694323 -1.9511200109378226 0.519521605810009 29.81721848287578 -1.6345501231185864 0.3566951930476328 24.619114855829533 -11.140469933347172 -12.58357699959593 15.543813426078708 -2.4248316000323884 0.8388700476959796 38.16237591722432 -1.249025209233184 0.2041334818341064 18.562879809172845 1.1495229460200802 -1.2206969895393207 17.609306668391778 -2.4686527881750626 0.8738207214912177 38.980120625928684 -1.4369812865684028 0.27263619378501314 21.484106672795004 -2.184825117071225 -0.12824003034846373 15.650525298685984 -2.863729494549171 1.2411399810128323 46.856886043510144 -1.3375831679490098 0.2350418493226387 19.932333080780204 1.4944269437413353 -6.4601653431591 -14.415920506945891 -21.461587392688745 16.544747108325918 1.398768994260358 15.758791797071932 -17.49549483680123 -15.332389670160957 3.454007423641551 -31.50616326559917 -3.1758491471562267 10.020172603592577 32.61051267107621 6.350788930464429 0.21546743848312117 -0.31923148665272244 -5.448969394661092 0.000009113975947021725 0.8265247778295173 -0.0000010355256898561057 -9.677911507096162 -16.997022615860867 -0.8681773564238222 -10.952895649547955 29.588457663205066 -4.605906595874267 -6.921563722868879 -17.403022501142893 3.8795609964143454 -0.0000016235114400426818 -0.0005848661617070317 4.47894361352426e-7
